<svg xmlns="http://www.w3.org/2000/svg" viewBox="0 0 428.16 87.37"><defs><style>.cls-1{fill:#392d7f;}</style></defs><g id="Layer_2" data-name="Layer 2"><g id="Layer_4" data-name="Layer 4"><path class="cls-1" d="M55,27.05v9.83H32.4V82.09H22.57V36.88H0V27.05Z"/><path class="cls-1" d="M119.05,70.14,115.51,82,108.28,72l-10.93-15L86.5,72l-7.24,10L75.72,70.14,62.91,27H73.13L83,60.15l8.33-11.56,1.57-2.2,4.49-6.13,4.48,6.13,1.57,2.2,8.33,11.56L121.72,27h10.22Z"/><path class="cls-1" d="M139.81,82V27h9.83V82Z"/><path class="cls-1" d="M155.54,82.09h.15l-.15.16Zm55.2-55-21.31,27.6,21.23,27.44H198.23l-15-19.42-15,19.42H155.77l21.15-27.44-21.3-27.6H168l15.1,19.58,15.09-19.58h12.51Zm-.16,55.2-.08-.16h.08Z"/><path class="cls-1" d="M284.74,87.37H267.27l-8-15.6L240.19,34.32l-19.1,37.45-8,15.6H195.63l8-15.6L240.19,0l36.57,71.77Z"/><path class="cls-1" d="M282.55,72.18s-.49-11-.49-15.13v-30h-9.83V64.56l.28.57,3.64,7.13,5,9.83H317.6V72.26Z"/><path class="cls-1" d="M372.49,54.49A27.53,27.53,0,1,1,345,27,27.55,27.55,0,0,1,372.49,54.49Zm-9.83,0A17.7,17.7,0,1,0,345,72.18,17.72,17.72,0,0,0,362.66,54.49Z"/><path class="cls-1" d="M428.16,27.05v9.83H405.59V82.09h-9.83V36.88H373.2V27.05Z"/></g></g></svg>