<svg xmlns="http://www.w3.org/2000/svg" xmlns:xlink="http://www.w3.org/1999/xlink" viewBox="0 0 1010.78 564.67"><defs><style>.cls-1{isolation:isolate;}.cls-2{fill:url(#radial-gradient);}.cls-3{fill:none;stroke:#fff;stroke-miterlimit:10;}.cls-4,.cls-5{fill:#032059;}.cls-4{mix-blend-mode:overlay;}.cls-6{fill:#e20756;}.cls-7{mix-blend-mode:darken;opacity:0.58;fill:url(#radial-gradient-2);}</style><radialGradient id="radial-gradient" cx="578.99" cy="306.79" fx="745.3629400777272" fy="596.3085424273149" r="351.48" gradientTransform="matrix(0.92, -0.39, 0.38, 0.88, -69.36, 263.98)" gradientUnits="userSpaceOnUse"><stop offset="0.1" stop-color="#0b4fd9"/><stop offset="0.37" stop-color="#032059"/><stop offset="0.51" stop-color="#392d7f"/><stop offset="0.58" stop-color="#3e2c7e"/><stop offset="0.65" stop-color="#4c297a"/><stop offset="0.74" stop-color="#642374"/><stop offset="0.82" stop-color="#861c6c"/><stop offset="0.91" stop-color="#b01262"/><stop offset="1" stop-color="#e20756"/></radialGradient><radialGradient id="radial-gradient-2" cx="556.25" cy="425.25" r="95.9" gradientUnits="userSpaceOnUse"><stop offset="0" stop-color="#fff"/><stop offset="1" stop-color="#767676"/></radialGradient></defs><g class="cls-1"><g id="Layer_2" data-name="Layer 2"><g id="Layer_4" data-name="Layer 4"><path class="cls-2" d="M451.14,31.48l-24,53.22c-1.81,4-3.62,8.72-1.62,12.65,1.51,3,4.75,4.53,7.78,5.9,9.94,4.51,22.68,8.66,30.8,1.36,6.4-5.75,5.52-17.58-1.67-22.32s-18.4-.9-21.17,7.25c1.42-7.17,3-14.65,7.56-20.36s13.17-8.91,19.43-5.11c5.1,3.1,6.95,9.49,8.37,15.29,2.83,11.51,5.2,25.14-2.67,34-8.72,9.83-24.34,7.7-37.14,4.76-10.18-2.34-21.86-5.94-25.55-15.71-2.07-5.47-1-11.56.16-17.3q8.65-43,21.14-85.12A965.57,965.57,0,0,1,627.09,57.4c6,2.47,24.91,9.76,23.75,11.75-32,54.88-10.38,102,10.72,134.85-43.57,57.21-27.11,118.92,3.59,172.91,67.54-1.71,135.36,24.36,183.08,70.71A168.07,168.07,0,0,0,785.16,452c23.53,2.05,47.05,4.09,69,7.45,5.3,8.45,1.72,20.21-5.56,27s-17.3,9.76-27,12c-53.84,12.65-110.08,11.3-164.33,22.08-56.92,11.31-111.83,35.95-169.68,39.93l1.44-33.09c.38,15.72-12.89,29.2-27.83,34.1s-31.18,3.1-46.74.82c-40.2-5.9-81.9-15.61-112.44-42.41C292,511.12,283,499.71,281.76,486.35,280.17,469,292,453.2,305.26,441.9,342.72,410,393.52,400,439.14,395.56A727.14,727.14,0,0,1,497.09,248a297.81,297.81,0,0,0,79.54-142.57A710.8,710.8,0,0,0,454.15,24.71,108.19,108.19,0,0,0,448.93,37C448.93,36.63,448.93,36.29,451.14,31.48Z"/><polyline class="cls-3" points="454.61 394.35 456 390.03 469.35 335.89 483.66 339.21 496.36 301.16 481.96 298.21 490.67 267.35"/><path class="cls-3" d="M519.39,225.29c-4.08,10.91-8.16,21.82-11.88,32.82l14.88,2.37-8.87,29.82L500,286.91,492.38,284,464.3,388.82"/><path class="cls-3" d="M512.53,306.46,502,351.86l-17.58-2.36-7.76,34.74,22.45,6.12L493.53,410"/><path class="cls-3" d="M481.89,400.67c5.23-24.7,10.45-49.41,14.91-74.86l30.25,6.24c4.67-25.8,9.35-51.59,13.39-77.51l-22.85-4.61,8.84-35"/><path class="cls-3" d="M547.93,184,537.1,219.21l22.18,5.26-3.94,20.33-19.52-5.21L511.4,342.42l23.18,3.72-7.65,32.95c-5.07-.79-10.14-1.57-15.14-2.79l-6.4,37.57"/><path class="cls-3" d="M586.94,95.51l-24.45,88.36,17.52,5-5.7,22.85c-6.19-1.55-12.39-3.1-18.74-4.3L513.76,419.7"/><path class="cls-3" d="M556.75,257.16l-12.33,64L511.69,314l-17.85,67.83,38,9.34L526,413.62"/><path class="cls-3" d="M558.77,170.61,545.5,212.78c.21.18.43.36.1,1.59L572.77,224,551.15,332l-11.92-.14L537,343.08l12.53,3.52-10.63,40.55,12,3.67-6,28.91-3.13.46"/><path class="cls-3" d="M604.83,103.22,555.44,371"/><path class="cls-3" d="M593.85,102.17c-2.85,10.55-5.71,21.11-8.38,31.71l21.12,5.67.36.09q-1.74,10-3.5,20.07l-19.9-6.31-5.87,23.26c6.71,1.14,13.43,2.28,19.76,5.64a5.94,5.94,0,0,1,1.2-1.69c-4.87,31.61-9.75,63.23-15.08,94.77,7.82,1.3,15.64,2.6,22.59,6-1.43,11.14-2.86,22.28-5.59,37.38l-26-6.42c.12,0,.25.06,0,3.47l-11,64-.09.37"/><path class="cls-3" d="M620.29,110.39,596.23,285.26l-15-1.45-3,21.17,34,10.43-6.62,102.06"/><path class="cls-3" d="M563.54,427.77,578.7,324.58,609,329l5.75-63.87-2.18,2.54"/><path class="cls-3" d="M587.33,422.46l1.38-20.94-32.77-5.6q4.62-27.39,9.27-54.8l.08-.36c10.66,1.31,21.31,2.62,31.6,3.85l-.09.37.54-.65"/><path class="cls-3" d="M578.47,425.48c1.8-20.22,3.61-40.44,6-60.55l35.92.63,2.8-40.12c-.1-.94-1.79-1-2-.09s1.41,1.5,1.86.68"/><path class="cls-3" d="M597.12,420.15c1.4-22.48,2.81-45,4.84-67.4l-.09.37.09-.37-.26,1.1"/><path class="cls-3" d="M605.23,176.35q-3.12,19.4-6.14,38.82l.45-.28"/><path class="cls-3" d="M599.93,216.52l22.71,4.86L620,243.07,595.89,241q-1.9,14.7-3.82,29.41"/><path class="cls-3" d="M635.5,71.35l-18,112,28.31,8.24c-2.36,17.76-4.72,35.53-6.64,53.33l-2.91,27.45c-9.8-2-19.59-4-29.47-5.5l.36.09"/><path class="cls-3" d="M605.06,268l-2.27,12.88,2.53-12.42c-1-.4-.53-2.36.57-2.2s1,2.19,1.94,1.19C608,267.38,608.13,267.29,605.06,268Z"/><path class="cls-3" d="M635,151.63q-7.12,74.54-14,149.07l12.22.6c-2,24.15-4,48.3-8.25,72.26a26.86,26.86,0,0,1-1.51,3.14c5.09-.24,10.17-.48,15-.73l-2.26,36.6"/><path class="cls-3" d="M618.68,417.35c-1.11-9.66-2.22-19.33-3-28.92l31.45.31L640.58,333"/><path class="cls-3" d="M650.79,364.23l5.84,30.59-11.24,2.54,1.91,10"/><path class="cls-3" d="M649.92,216.14l2.48-20.7"/><path class="cls-3" d="M635,69.86c-12.47-4.79-24.93-9.58-37.81-13.31l.37.08c.12,0,.25.06.28.46l-4.27,14.8L570.92,60.5l6.31-12.85C551.66,36.8,526,27,500.41,16.16"/><path class="cls-3" d="M618.17,111.3l6.05-26c0,.12-.06.24-1.39-.12l8.72-23.94L574.27,39.37,567,54.86l-19.84-9.17.88-5.64-78.83-30"/><path class="cls-3" d="M603.1,106.26l9-29.23-12.45-6.69-4.14,12.38L437.66,8.34"/><path class="cls-3" d="M591,103.45l5.76-14.85L547.82,68l4.93-15.13L503.14,32.13c-2.83,4.82-4.53,6.9-7.36,11.73-10.57-4.37-21.43-12.16-32-16.53"/><path class="cls-3" d="M585.63,94.85,548.92,79.76"/><path class="cls-3" d="M436.48,9.39l-7.08,22,12.21,4.16-6.55,14.48-11.34-.66-11,32.36L424.39,93"/><path class="cls-3" d="M448.35,23.15l-6.84-5.86c-.86,3.8-1.72,7.6-2.5,11.31,2.12,1.48,4.24,3,6.6,4.42L414.27,102.7"/><path class="cls-3" d="M671.05,382.11l5.33,14.8,58.74-9.36"/><path class="cls-3" d="M282.74,482.81c15.74-1.86,26.53-2.76,42.38-3.79l-2.85-18.88,22.29-2.22L344,477.77l107-18.25"/><path class="cls-3" d="M295.08,511.68c25.62-3.06,48.82-5.89,74.44-8.95L356,455.7l42.26-7.39,6.28,38L485,471.11"/><path class="cls-3" d="M327,530.46l77.1-9.84,7.72,28.06c13.85-2.88,27.7-5.76,41.78-8.32l-4.15-23.08,120.27-31.1"/><path class="cls-3" d="M374.3,536.68l61.21-10.93-8-33.59c31.68-5.07,63.35-10.14,94.94-15.74"/><path class="cls-3" d="M395,554.07l-7-48.17c9-1.23,18-2.46,26.77-5.16l69.76-9.91c1.9,8.11,3.8,16.23,8.85,23.56l49.33-10.6.88.2-9.5-22.42"/><path class="cls-3" d="M291.87,501c30.05-3.95,60.11-7.9,90.33-10.57"/><path class="cls-3" d="M285.17,471.86c12.86-1.31,15.62-1.55,28.49-2.86C313.3,469.23,323,468.39,285.17,471.86Z"/><path class="cls-3" d="M424.92,436.19l-39.19,6.52-.59-9.32-1.46-9.53-29,3.55c.83,6.57,1.66,13.13,2.69,18.82l-53.55,5"/><path class="cls-3" d="M413,427.36c-33.09,5-66.17,10.05-99.41,14.07l-.21.87"/><path class="cls-3" d="M419.76,399.9c-23.57,4.08-43.54,12.75-67.11,16.82-1.79,5.94-3.95,8.68-5.74,14.61-13.61.86-13.69,1.24-27.3,2.09"/><path class="cls-3" d="M384,405.59c.37,7,.76,4.47,2.23,11.43l39.57-8.24"/><path class="cls-3" d="M482.91,539.59l55-13.74c1.46,4.4,2.93,8.79,4.65,14.57,14.85-4.53,29.71-9.06,44.27-14.57l-7-27.89L809.52,420"/><path class="cls-3" d="M478.05,530.06c57.19-13.27,114.38-26.54,169.76-38.29l-6-20.8,51-15.54,6.56,24.72c36.85-10.23,57.78-13.54,94.63-23.77"/><path class="cls-3" d="M559.33,532.21l201.18-56.74,5.45,22.4,43.83-9.35-8-23c13.9-4.42,7.4-2.93,21.29-7.35"/><path class="cls-3" d="M688,445.16l41-9.8,9,24.56,40.52-7.74-8.81-29.47c16.43-4.24,15.34-4.18,31.77-8.42"/><path class="cls-3" d="M781.92,481.88l-64.31,17"/><path class="cls-3" d="M688.65,431.49c40.69-9.45,61.93-14.87,102.78-23.63"/><path class="cls-3" d="M677.49,417.57l19.79-6.6,7.77,41.69,43.26-7-12.89-36.14c17.52-3.56,24.58-4.93,42.1-8.49"/><path class="cls-3" d="M678.55,406.94c28.75-5.73,45.52-9,74.27-14.74Z"/><path class="cls-3" d="M674.64,393.26c23.32-3.35,33.13-4.67,56.44-8"/><path class="cls-3" d="M693.46,378.9l6.68,30.63c22.06-3.73,29.58-4.55,51.64-8.28-3.22-5-3.39-4.53-6.61-9.57"/><path class="cls-3" d="M726.41,496.72l-43.56,7c-1.48-10.29-3-20.57-4.81-27.9-7.15.92-14.29,1.83-21.44,3.85l4.4,33"/><path class="cls-4" d="M636.13,296.55c-3.31-24.43.94-27.2,2.13-38.76,1.24-12.08,9.64-30.57,15.5-43.12,1.28-2.73,6.29-8.77,7.48-10.67,1-1.57-19.46,20.86-21.29,22.64-8.05,7.85-48.17,103.72-51.05,108.66-9,15.39-24.32,33.42-56.83,53.43-43.47,26.78-118.62,12.33,23.11,45.78,11.91,2.82,84.93-15.19,103.82-40,8.67-11.38-12.44-34.35-13.87-39.42Z"/><path class="cls-5" d="M129.75,242.93v23.2H76.48V372.87H53.28V266.13H0v-23.2Z"/><path class="cls-5" d="M281,344.65l-8.35,28-17.08-23.76-25.8-35.45-25.62,35.45L187.12,372.5l-8.36-27.85L148.51,242.74h24.13L196,321.08l19.67-27.29,3.72-5.2L230,274.11l10.58,14.48,3.71,5.2L264,321.08l23.39-78.34h24.13Z"/><path class="cls-5" d="M330.06,372.68V242.74h23.2V372.68Z"/><path class="cls-5" d="M367.18,372.87h.38l-.38.37ZM497.5,242.93l-50.31,65.15,50.12,64.79H468L432.53,327l-35.46,45.85H367.74l49.94-64.79-50.31-65.15H396.7l35.64,46.22L468,242.93H497.5Zm-.38,130.31-.18-.37h.18Z"/><path class="cls-5" d="M667,349.48s-1.17-26-1.17-35.72V242.93h-23.2v88.54l.66,1.35,8.58,16.84,11.88,23.21h86v-23.2Z"/><path class="cls-5" d="M879.35,307.71a65,65,0,1,1-65-65A65,65,0,0,1,879.35,307.71Zm-23.21,0a41.77,41.77,0,1,0-41.76,41.77A41.83,41.83,0,0,0,856.14,307.71Z"/><path class="cls-5" d="M1010.78,242.93v23.2H957.5V372.87H934.3V266.13H881v-23.2Z"/><path class="cls-6" d="M445.7,380.18c2.13,3.31,41.18,32.84,91.26,37.29,85.19,7.57,129.09-42.3,129.09-42.3L680.3,409.7a20.75,20.75,0,0,1-8.21,26.71C641,454.83,606.7,478.69,546.21,474.94c-31.72-2-78.87-9.08-101-35.63-9.07-10.87-18.21-21.5-13.89-35C436.53,388,442.39,375,445.7,380.18Z"/><path class="cls-7" d="M445.7,380.18c2.13,3.31,41.18,32.84,91.26,37.29,85.19,7.57,129.09-42.3,129.09-42.3L680.3,409.7a20.75,20.75,0,0,1-8.21,26.71C641,454.83,606.7,478.69,546.21,474.94c-31.72-2-78.87-9.08-101-35.63-9.07-10.87-18.21-21.5-13.89-35C436.53,388,442.39,375,445.7,380.18Z"/><path class="cls-4" d="M604.83,469s-56.17-8.25-94.7-29.58c-14.61-8.09-64.35-59-64.35-59s57.3,43.05,119.57,37.48c59.3-5.3,100.91-42.3,100.91-42.3s69-2.92,137.69,38c14.69,8.74,26.1,18.36,30.31,21.5,2.8,2.08,16,13,13.69,12.45-6.65-1.48-30.61-1.85-38.28-.52-17.68,3.06-34.52,5.61-34.52,5.61Z"/><circle class="cls-6" cx="342.13" cy="211.42" r="16.96"/></g></g></g></svg>