<svg xmlns="http://www.w3.org/2000/svg" viewBox="0 0 805.52 450"><defs><style>.cls-1,.cls-2{fill:#fff;}.cls-1{stroke:#fff;stroke-miterlimit:10;stroke-width:0.8px;}</style></defs><g id="Layer_2" data-name="Layer 2"><g id="Layer_4" data-name="Layer 4"><path class="cls-1" d="M227.26,376c10.25-1,12.45-1.24,22.7-2.28C249.68,373.94,257.44,373.28,227.26,376Z"/><path class="cls-2" d="M103.4,193.6v18.49H61v85.06H42.46V212.09H0V193.6Z"/><path class="cls-2" d="M224,274.66,217.32,297l-13.61-18.93-20.57-28.26-20.41,28.26-13.61,18.79-6.66-22.2-24.11-81.21h19.23l18.64,62.43,15.68-21.75,3-4.14,8.43-11.54L191.72,230l3,4.14,15.68,21.75L229,193.45h19.23Z"/><path class="cls-2" d="M263,297V193.45h18.49V297Z"/><path class="cls-2" d="M292.62,297.15h.3l-.3.3ZM396.47,193.6l-40.09,51.92,39.94,51.63H373l-28.26-36.54-28.25,36.54H293.06l39.8-51.63L292.77,193.6h23.37l28.4,36.83L373,193.6h23.52Zm-.3,103.85-.14-.3h.14Z"/><path class="cls-2" d="M531.59,278.51s-.94-20.75-.94-28.46V193.6H512.16v70.56l.53,1.08,6.84,13.42L529,297.15h68.52V278.66Z"/><path class="cls-2" d="M700.78,245.23A51.78,51.78,0,1,1,649,193.45,51.83,51.83,0,0,1,700.78,245.23Zm-18.49,0A33.29,33.29,0,1,0,649,278.51,33.34,33.34,0,0,0,682.29,245.23Z"/><path class="cls-2" d="M805.52,193.6v18.49H763.06v85.06H744.57V212.09H702.11V193.6Z"/><path class="cls-2" d="M495.34,239.26h0l9.71.48,0,.41c-1.55,18.93-3.16,38.51-6.58,57.62a10.67,10.67,0,0,1-.92,2c3.83-.18,7.64-.36,11.31-.55l.44,0-.62,10.13,6.64.06-5.2-44,.79-.09,5.31,44.88-7.59-.08-.35,5.61a113.63,113.63,0,0,0,13.14-8.84l-3.16-16.55.78-.15,3.09,16.15a83.23,83.23,0,0,0,7.54-6.72c-14.64-25.95-25.1-54.1-23.41-82.34q-4.32-.87-8.73-1.73Q496.42,227.43,495.34,239.26Z"/><path class="cls-2" d="M486.8,250.57l1.63.5-2.57,39.71,8.15.14,2.12-30.4a1.48,1.48,0,0,1-.68-.07,1.1,1.1,0,1,1,1.56-1.14l-2.26,32.42-8.95-.16-2.27,35c2.86-.9,5.56-1.87,8.11-2.86-.51-4.72-1-9.46-1.35-14.13l0-.44,17.61.17.57-9.28-11.52.56-.68,0,.28-.61c1-2,1.15-2.33,1.16-2.41,3.38-18.92,5-38.33,6.54-57.12l-9.74-.47,0-.42q1.1-12.07,2.22-24.2c-2.21-.43-4.43-.85-6.65-1.24Z"/><path class="cls-2" d="M503.7,149.88c-2.05,21.48-4.11,43.21-6.11,64.87,2.92.57,5.83,1.15,8.7,1.73a97.74,97.74,0,0,1,1.86-13.39l.85-8c1.52-14.09,3.41-28.36,5.25-42.18Z"/><path class="cls-2" d="M453.93,272.38l-3.12-.38c-2.46,14.38-4.92,29-7.3,43.2l8.74,1.49L458.68,273l-4-.49-5.27,30.58-.78-.18.07-.29Z"/><path class="cls-2" d="M476.27,222.14l-.78,5.62-11.91-1.15-2.26,16.15,17.89,5.49c1.54-9.15,2.49-16.57,3.41-23.76-.59-.29-1.19-.55-1.8-.8l-.05.26-.78-.15.07-.41C478.82,222.91,477.55,222.5,476.27,222.14Z"/><path class="cls-2" d="M483.23,223.9l.26.12,0,.28c-.94,7.34-1.9,14.86-3.47,24.18l6,1.85L489.29,214c-1.45-.26-2.9-.5-4.35-.74l-.28.19a.85.85,0,0,1-.67.31.77.77,0,0,1-.31-.12l-.86.2-1.84,9C481.75,223.2,482.5,223.53,483.23,223.9Z"/><path class="cls-2" d="M504.6,317.77c1-.52,1.91-1,2.83-1.56l.38-6.09L491.12,310c.35,4.45.8,9,1.29,13.45A124.5,124.5,0,0,0,504.6,317.77Z"/><path class="cls-2" d="M482.8,212.61h0c-.22,0-.35.27-.39.42a.37.37,0,0,0,0,.12l.83-.2C483.06,212.76,483,212.63,482.8,212.61Z"/><path class="cls-2" d="M489.37,213.22l.06-.7-.53.62Z"/><path class="cls-2" d="M478.92,254.53l-20.5-5.06c0,.46-.05,1.17-.14,2.26l-3.43,20,3.94.49,2.06-14L485,261.77l1-10.63-6.1-1.86c-.27,1.56-.55,3.17-.85,4.83Z"/><path class="cls-2" d="M461.27,331.58c.37-4.09.74-8.22,1.13-12.35l-9.48-1.62-2.2,15C454.37,332.4,457.88,332,461.27,331.58Z"/><path class="cls-2" d="M485,291.56l-5.77-.1c-1,12.39-1.82,24.86-2.59,37.09,2.09-.53,4.12-1.11,6.07-1.71Z"/><path class="cls-2" d="M475.84,328.76c.78-12.33,1.59-24.86,2.6-37.32l-12.33-.21c-1.06,9-2,18.22-2.85,27.34l6.32,1.08-.7,10.66Q472.48,329.6,475.84,328.76Z"/><path class="cls-2" d="M459.47,273.07,453,316.82l9.44,1.62c.87-9.23,1.8-18.5,2.88-27.67l0-.35,13.1.23q.36-4.36.75-8.72l-.12,0,.2-.88.79.12q-.44,4.74-.82,9.51l5.76.1,2.53-39.11-.86-.27-1,11.3-24.19-3.56-1.93,13.16,16.08,2,.06-.08.12.1.32,0-.05.19.22.18-1.5,1.82.35-1.51C470,274.36,464.77,273.72,459.47,273.07Z"/><path class="cls-2" d="M468.07,330.47l.67-10.15-5.55-.95q-.57,6.08-1.11,12.09Q465.14,331,468.07,330.47Z"/><path class="cls-2" d="M495.83,259.15h0c-.13,0-.35.05-.38.21s.18.3.29.34.37.08.45-.07h0l0-.32C496.2,259.22,496,259.16,495.83,259.15Z"/><path class="cls-2" d="M425.73,253.75l7.82,1.72,9.75-50.61.78.15-9.9,51.41-8.6-1.89-4,20.21,4.91.79-6.28,27-.37-.05-3.62-.57-1.41,7.16,9.52,2.34-4.82,18.3-.77-.21L423.37,312l-8.69-2.14-3.87,19.65A124.09,124.09,0,0,0,428,332.3c2.12.18,4.2.33,6.25.43l4.37-21L429,308.8l8.47-32.31-10-2.8L429.4,264l9.5.11L456,178.8l-14.49-5.15-.72,3.66,5.38,1.28-3.29,17-5.41-1.44Z"/><polygon class="cls-2" points="440.63 178.09 437.63 193.36 442.26 194.59 445.24 179.19 440.63 178.09"/><path class="cls-2" d="M403.54,327.6c2.12.62,4.29,1.2,6.49,1.73l3.87-19.65-7-1.72Z"/><path class="cls-2" d="M415.46,301.8c-2.43-.4-4.87-.86-7.28-1.43l-1.16,6.8,7,1.73Z"/><path class="cls-2" d="M380.33,305.93l5.79,1.57c1.92-9.15,3.84-18.43,5.66-27.8l-5.42-.73Z"/><path class="cls-2" d="M394.34,324.57c2.71,1,5.53,1.94,8.43,2.81l3.34-19.61-13-3.21,6.27-23.85-6.76-.9c-1.84,9.4-3.76,18.72-5.69,27.9l11.36,3.1Z"/><path class="cls-2" d="M392.73,279l6.82.92,1.78-6.77L404,261.72l-7.75-1.6Q394.58,269.62,392.73,279Z"/><polygon class="cls-2" points="405.31 261.18 409.71 262.09 412.2 251.59 408.07 250.69 405.31 261.18"/><path class="cls-2" d="M402.1,273.36l-1.73,7.49-.23,0L394,304l12.21,3,1.29-7.59.42.11c2.52.61,5.1,1.09,7.65,1.52l5.05-25.63-13.6-2.18,2.46-10.35-4.41-.91Z"/><path class="cls-2" d="M410.49,262.25l9.21,1.9q.94-5.22,1.9-10.49L413,251.77Z"/><path class="cls-2" d="M422.38,253.83q-1,5.46-2,10.87l-.07.4-10-2.08L408,272.56l12.77,2.05,4-20.25Z"/><path class="cls-2" d="M419.62,301.65l5.92-25.47-4.1-.66-5,25.63Z"/><path class="cls-2" d="M413.16,251l8.58,1.88c3-16.4,5.91-33.13,8.5-49.7l-5.46-1.11Z"/><path class="cls-2" d="M425,201.29l6.19,1.25-.06.37c-2.61,16.72-5.59,33.59-8.57,50.14l2.43.53,11.75-59.65-9.39-2.5Z"/><path class="cls-2" d="M607.79,387.68l-2-8.27-61.86,17.45c.21,1.37.41,2.75.6,4.12l33.28-5.36Z"/><path class="cls-2" d="M584.6,355.69l.35.93,10.86-1.74-.95-2.67Z"/><path class="cls-2" d="M575.44,338,558.78,342l1.76,9.47,20.67-4.94,3.12,8.46,10.26-3.48-5.9-16.56Z"/><path class="cls-2" d="M384.94,430.4l-.19-.77,3.54-.89a23,23,0,0,0,1.33-5.57c-.08,1.76-.16,3.53-.23,5.3l39.52-9.88.12.35c1.12,3.35,2.27,6.81,3.6,11.24,11.4-3.48,23.17-7.08,34.53-11.36l-.07-.29-21.23,6-.22-.77,21.25-6-3.5-13.86c-27.45,6.17-55.17,12.61-82.33,18.91l-.18-.78c27.16-6.3,54.87-12.73,82.32-18.91l-1.65-6.54.34-.12,50.35-17.07L511,375.06l41.45-12.62.8,3,.21-.07,16.32-5.54-8.21,1.33-1.65-8.81-11.55,2.76-.19-.77,11.6-2.78L558,342.13l-9.1,2.12-.19-.77,9.14-2.13L555.37,328l-11.31,3.77a16.86,16.86,0,0,1-8.25,16.32l-5.71,3.41c-21.7,13-46.09,27.67-84.83,27.67-3.24,0-6.56-.1-10-.32-27.42-1.7-63.68-8-80.78-28.54l-.38-.45c-7-8.37-14.22-17-10.77-27.8.67-2.09,1.41-4.28,2.18-6.41-35.17,3.77-73.61,12.09-102.25,36.47-10.58,9-20,21.59-18.72,35.43,1,10.64,8.12,19.73,16.15,26.78,24.35,21.36,57.57,29.09,89.61,33.8,12.4,1.82,25.34,3.25,37.25-.65,8.81-2.9,16.89-9.53,20.37-17.86Zm-119.4-86.22c2.64-.24,5.37-.49,10.62-.82a45.16,45.16,0,0,1,2.23-5.61,42.92,42.92,0,0,0,2.27-5.77l.07-.23.24,0a222.65,222.65,0,0,0,24.78-6.14c-.06-.59-.11-1.34-.16-2.32l.79,0c.05.89.1,1.58.15,2.14l1.14-.34a240.86,240.86,0,0,1,26.78-6.71l.13.79a238.71,238.71,0,0,0-26.69,6.69l-1.28.37a10.87,10.87,0,0,0,.5,2.12,34.34,34.34,0,0,1,.95,3.59l31.15-6.48.16.78-31.92,6.65-.09-.39a33.91,33.91,0,0,0-1-3.91,10.94,10.94,0,0,1-.51-2.13,227,227,0,0,1-24.49,6.07,44.24,44.24,0,0,1-2.24,5.63,45.06,45.06,0,0,0-2.27,5.78l-.08.26-.27,0c-5.42.34-8.2.59-10.88.83s-5.45.49-10.88.83l0-.79C260.09,344.67,262.86,344.42,265.54,344.18Zm18.77,11.08c-.41-2.34-.79-4.86-1.14-7.46q-16.46,2.32-32.91,4.35l-.1.42-.77-.18.22-1,.28,0c11-1.33,22.12-2.82,33.17-4.38-.28-2.1-.55-4.24-.82-6.34l-.05-.4,23.91-2.93.95,6.17q11.1-1.65,22.05-3.33l.12.79-22.05,3.33.15,1,.45,7,30.8-5.13.13.78L307,353.28l-.5-7.88-.15-1q-11.16,1.66-22.42,3.27c.37,2.75.77,5.41,1.21,7.85l.08.43-43.11,4-.07-.79Zm-49.1,52.91-.1-.79,29.4-3.54L294,400.3l-2.26-7.83c-19.81,2-39.68,4.64-59,7.18l-.1-.39-.06-.39c19.33-2.54,39.17-5.15,59-7.18l-3.7-12.87-14.06,2.4.45-15.85-16.9,1.68,2.27,15.06-.43,0c-11.87.78-20.76,1.49-33.75,3l-.1-.79c12.86-1.52,21.7-2.23,33.37-3l-2.27-15L275,364.49l-.45,15.78,13-2.22-4.38-15.2,34.52-6,2.58,15.66,39-6.66.14.79-39,6.65,2.29,13.83,63.74-12,.15.78L322.05,388l-2.41-14.63-31.06,5.3,3.72,12.92q6.13-.63,12.25-1.17l.07.79q-6,.54-12.1,1.16L295,401l-.46,0-29.92,3.6ZM362,431l-.39.07c-11.18,2-22.37,4.36-33.19,6.61l-.45.1L324,423.51l-11.17,2,2.34,16-.79.11-2.33-16-13.7,2.45-.14-.79,13.72-2.45-1.18-8.11-50.09,6.39-.11-.79L310.64,416l-1.92-13.12.4-.06c7-1,14.32-2,21.27-4.1l11.07-1.57-1.24-5.21.42-.06c24.79-4,50.43-8.08,75.65-12.55l.14.78c-25.09,4.45-50.57,8.54-75.24,12.49l1.06,4.44,44.16-6.28.08.36a77.86,77.86,0,0,0,3.67,12.48l39.1-10.1-4-9.52.73-.31,4.08,9.62,23.9-6.18.2.78L430.36,394l3.48,8.22-1.37-.32L393,410.38l-.15-.22a34.32,34.32,0,0,1-3.13-5.66l-31,8Z"/><path class="cls-2" d="M585.23,357.39l3.19,8.68,31.53-6-4.44-14.85L595.61,352l1.27,3.56Z"/><path class="cls-2" d="M342.43,397.76l5.12,21.54-22.75,4.06,3.7,13.43c10.61-2.2,21.57-4.48,32.54-6.48l-3.3-18.37,31.64-8.18a76.55,76.55,0,0,1-3.58-12.16Z"/><polygon class="cls-2" points="311.55 416.64 312.73 424.71 323.8 422.74 321.77 415.34 311.55 416.64"/><path class="cls-2" d="M432.48,401.08h0l-2.92-6.89-39.1,10.11a33.51,33.51,0,0,0,2.86,5.19Z"/><path class="cls-2" d="M341.64,397.87l-11.07,1.58c-6.83,2.1-14,3.11-20.94,4.06l1.8,12.34,10.92-1.39,2.24,8.13,22-3.92Z"/><path class="cls-2" d="M578.49,322.67c5.66-.87,11.51-1.77,20-3.2-1.07-1.65-1.69-2.48-2.29-3.28-.45-.6-.9-1.21-1.55-2.16l-24.15,4.79h0l-13.15,2.61,1,4.48C566.87,324.46,572.78,323.55,578.49,322.67Z"/><path class="cls-2" d="M540.05,379.65a115.63,115.63,0,0,0-16.34,2.91L526.17,401,543,396.28C542.12,390.12,541.16,384.17,540.05,379.65Z"/><path class="cls-2" d="M539.29,315.86l15.44-2.46-.43-2-15.8,2.25Z"/><path class="cls-2" d="M464,403c17.44-3.92,34.77-7.74,51.78-11.34l-3.3-11.46-50,17Z"/><path class="cls-2" d="M560.69,352.2l1.51,8.08,12.1-1.94,9.27-3.15-2.86-7.77Z"/><path class="cls-2" d="M583.85,355.94,579,357.58l5.12-.83Z"/><path class="cls-2" d="M551.88,363.45,512,375.6l1,3.53,39.49-13.39Z"/><path class="cls-2" d="M680.73,366.16c-17.52-2.68-36.26-4.31-55-5.94a133.91,133.91,0,0,1,50.26-3.5c-37.63-36.54-90.94-57.25-144.19-56.37l9.66,23.41,14.89-3-1.44-6.62-16.14,2.57-4.36-12.1.76-.27,3.07,8.53,15.9-2.26L552.25,302l.78-.17,1.89,8.67,5.25-.74c6.57-.93,13.15-1.85,22.4-3.18l.11.79c-9.25,1.33-15.83,2.25-22.4,3.18l-5.19.73.43,2,30.25-4.82.13.79-30.21,4.81,1.43,6.58L570.3,318h0l23.79-4.72c-.19-.29-.39-.61-.62-.95l.67-.43.79,1.21,4.89-1h0l.16.78-4.57.91c.54.78.94,1.32,1.34,1.85.67.9,1.36,1.82,2.65,3.84l.33.51-.6.1c-8.78,1.49-14.77,2.41-20.57,3.3s-11.78,1.81-20.58,3.3l-.37.07-1.15-5.25-14.75,2.93.76,1.84A16.61,16.61,0,0,1,544,331l12-4,2.64,14.17c5.91-1.38,11.33-2.66,16.63-3.92l13.16-3.1-2.87-8.05L586,326l16.73-3.37,16.82-3.39.16.78-16.82,3.39-16.28,3.28L589.2,334c12.45-2.92,25-5.79,41.43-9.32l.17.78c-16.38,3.52-28.92,6.38-41.33,9.29l5.88,16.49,19.93-6.76-2.34-7.85.4-.11c6.54-1.69,9.65-2.53,12.65-3.35s6.12-1.66,12.66-3.36l.2.78c-6.54,1.68-9.65,2.53-12.65,3.35s-6,1.63-12.26,3.25l2.1,7,29-9.82.26.75-29,9.84,4.7,15.72L587.91,367l-3.48-9.47-9.94,1.6-20.79,7.05-.25.09,4.21,15.9c14.51-4,26.11-6.73,37.33-9.36s23-5.4,37.7-9.47l.21.76c-14.69,4.08-26.4,6.83-37.72,9.48s-23,5.39-37.7,9.47l-.38.11-4.41-16.63L513.21,379.9l3.55,12.31-.42.09c-17.13,3.63-34.59,7.47-52.17,11.42l3.49,13.82,57.74-16.28L522.83,382l.33-.09a116.59,116.59,0,0,1,17.14-3.08l.35-.05.09.35c1.15,4.57,2.13,10.66,3.07,17l62.55-17.65,2.2,9.05L623,383.64l.21.77-14.49,3.84,2,8.05L644.82,389l-6.36-18.33.39-.12c5.52-1.76,7-2.35,8.46-2.92s3-1.18,8.51-2.94l.24.76c-5.52,1.75-7,2.35-8.46,2.92s-2.89,1.14-8.12,2.81l6.39,18.41-35.75,7.63L608,388.45l-29,7.69,0,.1-1,.16L572,398l-.16-.6-28,4.51-.06-.41c-.21-1.46-.42-2.94-.64-4.41l-16.87,4.76.88,6.66-.79.11-.87-6.55-57.64,16.25.25,1-.33.12c-11.62,4.39-23.66,8.07-35.31,11.62l-.38.12-.11-.39c-1.33-4.44-2.48-7.91-3.59-11.25l-39,9.76-.76,17.41c46.1-3.17,89.87-22.81,135.23-31.82,43.23-8.59,88-7.52,131-17.6,7.73-1.81,15.71-4.16,21.52-9.59S685,372.89,680.73,366.16Z"/><path class="cls-2" d="M398.83,29.79l39.24,18.49,1.94-6L401.13,26.1C400.27,27.56,399.53,28.72,398.83,29.79Z"/><polygon class="cls-2" points="477.3 109.99 474.56 124.85 480.6 126.76 483.24 111.58 477.3 109.99"/><path class="cls-2" d="M460.86,140.47a76.9,76.9,0,0,1,9.62,2.08l3.17-17.16-8.32-2.64Z"/><polygon class="cls-2" points="482.89 173.99 480.4 192.13 493.75 193.28 495.76 176.74 482.89 173.99"/><path class="cls-2" d="M348.11,94.14c10.21,2.35,22.65,4,29.6-3.79,6.27-7.07,4.39-17.93,2.13-27.11-1.13-4.62-2.6-9.71-6.67-12.18-5-3-11.83-.47-15.48,4.07s-4.9,10.51-6,16.23c2.21-6.5,11.15-9.56,16.87-5.78s6.43,13.2,1.33,17.79c-6.47,5.81-16.62,2.51-24.54-1.08-2.42-1.1-5-2.35-6.2-4.71a6.88,6.88,0,0,1-.68-3.7l-.5.53-2.8-2.7L330.51,82l-.73-.32,4.75-10.56-6.07-5.86.08-.24L337.39,39l9.07.52,4.93-10.89-9.69-3.3,5.77-17.92.75.25L342.7,24.78l9.78,3.33L347,40.3l-9-.52L329.37,65l5.51,5.31,19.73-43.88c-1.77-1.11-3.4-2.24-5-3.35l-.22-.15.05-.26c.64-3,1.36-6.2,2-9l.15-.64,5.95,5.09-.52.61-5-4.24c-.57,2.57-1.21,5.4-1.79,8.11,1.6,1.11,3.24,2.26,5,3.35l.3.19L335.49,70.94l3,2.86a19.7,19.7,0,0,1,2-6.3l18.15-40.26c-.79,1.8-.79,2-.79,2.23.27-.82.56-1.63.88-2.42s.59-1.31.88-2c-.36.79-.65,1.42-.87,1.94,1-2.49,2.12-4.91,3.27-7.33a566.58,566.58,0,0,1,97.6,64.36,237.23,237.23,0,0,1-63.39,113.62,580.16,580.16,0,0,0-42.31,104,2,2,0,0,1,1.7,1.09c.53.82,3.31,3.19,7.91,6.26l10.3-41.82,6.86,1.6,8-29.82-5-1,7.06-25,.76.22-6.82,24.18,4.21.86,3.32-12.39,6.48,2.46L409,230.87l6.84-23L403.92,206l.15-.45c3-8.8,6.28-17.63,9.47-26.17l.75.28c-3.14,8.39-6.38,17.06-9.31,25.7l11.84,1.89-7.31,24.56-.37-.09L398.36,229l-5.7-2.16-3.08,11.49,6.5,1.34L385.7,270.8l-4.53-1.05L370.4,310l-.77-.21,10.77-40.19-6.07-1.41-10.19,41.33a150.36,150.36,0,0,0,29.45,14.8l3.67-12.92-10.54-2.87q-1.14,5.47-2.29,10.89l-.78-.17,2.3-10.93-6.56-1.79,6.35-28.41,6.2.83c1.24-6.41,2.45-12.86,3.59-19.34l.07-.41,8.57,1.77,3.89-16.8.78.18-1.26,5.44,4.8,1.06L424,201.91l-12-2.42,7.14-28.3.77.19L413,198.87l11.21,2.26,2.54-10.68,10.13,2.7,3-15.24L427.53,175l8.75-28.5.76.24-8.5,27.68L440,177.12l.74-3.74-6.43-2.29.1-.35c.2-.74.1-.81.05-.86l-.21-.17,10.66-33.86.76.24-10.51,33.38a1.32,1.32,0,0,1,.1,1.12l5.63,2,1.54-7.79.39.07c4.93.94,9.83,2.16,14.57,3.34l4.35-17.45-14-3.95L467.36,76l.77.21-19.37,70,13.95,4-4.73,19-.39-.1c-4.72-1.18-9.61-2.4-14.52-3.35l-1.41,7.13,15.26,5.42L439.55,265l-9.5-.12-1.67,8.29,10,2.8-8.48,32.33,9.59,2.92-.08.36L435,332.76a147.14,147.14,0,0,0,14.89-.08l2.24-15.2-9.55-1.63.09-.54c2.4-14.26,4.88-29,7.36-43.52l.15-.67.36,0,3.51.44,3.43-20a13.44,13.44,0,0,0,.11-2.51.32.32,0,0,0,.21.2l.19-.78h0l20.25,5c.28-1.55.54-3.05.79-4.51l-18.64-5.71,2.46-17.59,11.91,1.16.68-5c-3.44-.9-7-1.5-10.5-2.08l-.39-.06.07-.4c4.15-24.57,8-49.59,11.75-73.84l-.13.27-.36-.19a30.63,30.63,0,0,0-4.83-2L443,295.69l-.79-.14,28.08-152.21a77.39,77.39,0,0,0-10-2.16l-.42-.07,4.89-19.37,9,2.86,2.74-14.82L466.1,107l.09-.38c2.12-8.42,4.42-16.93,6.65-25.16l0-.12.77.21,0,.12c-2.19,8.1-4.46,16.48-6.55,24.76l9.61,2.58,4.66-25.23-.32,1-.76-.24,7.05-23-9.22-4.95-3.29,9.84L438.55,49.39l-1.48,4.54,39,16.46-4.73,12.19-.74-.29,4.44-11.47-39-16.44,1.74-5.33L398.39,30.47l0,0c-.89,1.34-1.8,2.74-2.92,4.65l-.18.3-.32-.13a119.67,119.67,0,0,1-12.79-6.61,120,120,0,0,0-12.71-6.56l.3-.73a117,117,0,0,1,12.8,6.6,121.9,121.9,0,0,0,12.38,6.43c1-1.75,1.9-3.06,2.73-4.33L348.61,7l.34-.72L398.1,29.45c.76-1.17,1.57-2.42,2.52-4.05l.18-.3L441,41.86l-2.21,6.77,35.53,16.74,3.31-9.89,10.62,5.71-6.45,21,.6.11-5,26.87,6.72,1.78-2.94,16.82-6.81-2.16-3.16,17.16a32.13,32.13,0,0,1,4.7,1.94,5.6,5.6,0,0,1,.84-1.08l.87-.92-.19,1.25c-3.8,24.64-7.73,50.12-12,75.14,3.36.56,6.77,1.14,10.08,2l3.89-28.29-4.26-.37-3,23.06-.79-.11,3.1-23.81,5.06.44,2.51-18.24-4.09-.88.17-.78,4,.87,11.72-85.11.79.11L483,173.19l13.64,2.92-2.19,18-14.16-1.22-3.91,28.43c1.29.36,2.57.76,3.82,1.24l1.53-8.68a1.38,1.38,0,0,1-.13-1.09,1.16,1.16,0,0,1,2.07-.55L488,213l2.47-2.87-.3,3.25q3.33.6,6.65,1.24c2-21.69,4.07-43.44,6.12-64.94l-11.24-3.27.05-.35,14.32-89.25.79.13-14.27,88.9,10.43,3q1.33-14.11,2.68-28l.79.08q-1.34,14-2.69,28.2l11.35,3.3,0,.34c-1.85,13.91-3.77,28.3-5.3,42.49l-.22,2.1a102.87,102.87,0,0,1,17.64-34.74c-16.81-26.16-34.06-63.73-8.54-107.46.93-1.58-14.16-7.39-18.92-9.36A769.23,769.23,0,0,0,344.72,0q-9.93,33.53-16.84,67.84c-.92,4.57-1.78,9.42-.13,13.78C330.69,89.41,340,92.28,348.11,94.14ZM437.6,63.19l29.26,12-.3.74-29.26-12Zm45.06,77.75c-1.59,10-3.24,20.25-4.81,30.41l.15.24-1.09.68.13-.86c1.57-10.22,3.23-20.58,4.83-30.59l.06-.34.79.12Zm36.86,14.77.79.09-2,16.49-.79-.09ZM374.06,7.64l63.13,24-.71,4.51,14.21,6.58,1,.45,3.26-6.94c-8.59-3.59-17.24-7.07-25.66-10.46-10-4.05-20.43-8.23-30.62-12.55l.31-.74c10.19,4.32,20.57,8.5,30.61,12.55,8.43,3.39,17.1,6.88,25.7,10.48l2.19-4.67.34.13,46,17.53-1.87,5.13,4.26,1.64-.26.75-4.27-1.64-4.8,13.15a1.49,1.49,0,0,0,.43.07.31.31,0,0,0-.23.22l.78.18L493,88.79l-.78-.18,4.69-20.22c-.17,0-.4-.08-.7-.16l-.41-.12,5.09-14c-7.88-3-15.94-6-24.1-8.4l-3.5,12.14L454.45,48.4l5-10.23-3.82-1.6L452,44.25l-1.68-.78-14.48-6.7-.28-.13.7-4.46L373.78,8.39Z"/><polygon class="cls-2" points="389.38 239.14 381.38 268.98 385.18 269.86 395.04 240.31 389.38 239.14"/><path class="cls-2" d="M305.43,338.23,283.08,341c.25,2,.5,4,.77,5.94q11.23-1.59,22.41-3.27Z"/><polygon class="cls-2" points="317.05 357.73 284.2 363.48 288.36 377.92 319.51 372.6 317.05 357.73"/><path class="cls-2" d="M460.56,37.77,455.51,48l17.31,8.68,3.23-11.21-.21-.06.2-.77.3.07a.54.54,0,0,1,.19.07c8.37,2.45,16.62,5.49,24.66,8.56l1.6-4.38L457.86,31.88l-1.87,4,4.18,1.76Z"/><circle class="cls-2" cx="272.65" cy="168.49" r="13.51"/></g></g></svg>