<svg xmlns="http://www.w3.org/2000/svg" xmlns:xlink="http://www.w3.org/1999/xlink" viewBox="0 0 935.29 918.32"><defs><style>.cls-1{isolation:isolate;}.cls-2{fill:url(#radial-gradient);}.cls-3{fill:none;stroke:#fff;stroke-miterlimit:10;stroke-width:1.63px;}.cls-4{fill:#032059;mix-blend-mode:overlay;}.cls-5{fill:#e20756;}.cls-6{mix-blend-mode:darken;opacity:0.58;fill:url(#radial-gradient-2);}</style><radialGradient id="radial-gradient" cx="483.61" cy="498.93" fx="754.1870858426705" fy="969.7777308555555" r="571.62" gradientTransform="matrix(0.92, -0.39, 0.38, 0.88, -149.87, 248.8)" gradientUnits="userSpaceOnUse"><stop offset="0.1" stop-color="#0b4fd9"/><stop offset="0.37" stop-color="#032059"/><stop offset="0.51" stop-color="#392d7f"/><stop offset="0.58" stop-color="#3e2c7e"/><stop offset="0.65" stop-color="#4c297a"/><stop offset="0.74" stop-color="#642374"/><stop offset="0.82" stop-color="#861c6c"/><stop offset="0.91" stop-color="#b01262"/><stop offset="1" stop-color="#e20756"/></radialGradient><radialGradient id="radial-gradient-2" cx="446.62" cy="691.59" r="155.97" gradientUnits="userSpaceOnUse"><stop offset="0" stop-color="#fff"/><stop offset="1" stop-color="#767676"/></radialGradient></defs><g class="cls-1"><g id="Layer_2" data-name="Layer 2"><g id="Layer_4" data-name="Layer 4"><path class="cls-2" d="M275.7,51.19l-39,86.55c-3,6.53-5.89,14.19-2.64,20.58,2.45,4.81,7.73,7.37,12.65,9.6,16.17,7.33,36.89,14.08,50.09,2.21,10.41-9.36,9-28.59-2.71-36.3s-29.93-1.46-34.43,11.79c2.31-11.67,4.86-23.83,12.3-33.11s21.42-14.49,31.59-8.32c8.3,5,11.3,15.44,13.62,24.87,4.61,18.73,8.45,40.89-4.35,55.32-14.18,16-39.58,12.52-60.4,7.73-16.55-3.8-35.56-9.66-41.56-25.54-3.36-8.9-1.61-18.81.27-28.13Q225.2,68.5,245.49,0A1569.78,1569.78,0,0,1,561.84,93.35c9.71,4,40.51,15.88,38.62,19.11-52.09,89.24-16.88,165.92,17.43,219.31-70.85,93-44.08,193.39,5.85,281.2,109.83-2.78,220.13,39.62,297.74,115a273.21,273.21,0,0,0-102.56,7.14c38.25,3.32,76.5,6.65,112.25,12.11,8.62,13.74,2.8,32.87-9,43.95S894,807.06,878.21,810.76c-87.56,20.57-179,18.38-267.25,35.91-92.57,18.4-181.87,58.47-276,64.94l2.33-53.82c.62,25.57-21,47.49-45.26,55.46s-50.7,5-76,1.33c-65.39-9.6-133.2-25.38-182.87-69-16.39-14.38-31-32.94-33-54.66C-2.35,762.72,16.86,737,38.45,718.66,99.36,666.81,182,650.54,256.17,643.3a1183.56,1183.56,0,0,1,94.25-239.92A484.14,484.14,0,0,0,479.77,171.52,1155,1155,0,0,0,280.59,40.18a177.47,177.47,0,0,0-8.49,20C272.1,59.57,272.1,59,275.7,51.19Z"/><polyline class="cls-3" points="281.34 641.34 283.6 634.31 305.3 546.26 328.57 551.66 349.23 489.78 325.81 484.97 339.98 434.8"/><path class="cls-3" d="M386.68,366.38c-6.64,17.75-13.27,35.5-19.31,53.39l24.2,3.86-14.43,48.49c-7.31-1.82-14.61-3.65-22-5.51l-12.38-4.69L297.09,632.34"/><path class="cls-3" d="M375.53,498.4l-17.12,73.83-28.59-3.83-12.63,56.49,36.51,10-9.06,31.88"/><path class="cls-3" d="M325.71,651.61c8.49-40.18,17-80.35,24.24-121.75L399.14,540c7.61-42,15.21-83.91,21.78-126.06l-37.16-7.5,14.38-56.92"/><path class="cls-3" d="M433.11,299.17,415.49,356.5l36.06,8.55-6.39,33.07-31.75-8.47L373.7,556.87l37.69,6.06L399,616.51c-8.25-1.27-16.49-2.55-24.62-4.54l-10.41,61.11"/><path class="cls-3" d="M496.54,155.32,456.79,299l28.48,8.06L476,344.25c-10.08-2.51-20.15-5-30.48-7l-68,345.29"/><path class="cls-3" d="M447.45,418.21,427.4,522.31l-53.23-11.69q-14.52,55.15-29,110.32L407,636.13l-9.63,36.54"/><path class="cls-3" d="M450.72,277.47l-21.58,68.58c.35.29.71.58.17,2.59l44.19,15.7L438.33,539.88,419,539.65,415.26,558l20.37,5.72-17.29,66,19.6,6-9.78,47-5.09.74"/><path class="cls-3" d="M525.64,167.87l-80.33,435.4"/><path class="cls-3" d="M507.79,166.16c-4.65,17.16-9.29,34.33-13.64,51.57L528.49,227l.6.14q-2.85,16.32-5.69,32.64L491,249.47l-9.55,37.84c10.92,1.85,21.84,3.7,32.14,9.16a9.73,9.73,0,0,1,2-2.74c-7.92,51.41-15.85,102.82-24.52,154.12,12.72,2.12,25.44,4.23,36.73,9.79-2.32,18.12-4.64,36.24-9.08,60.79L476.46,508c.2.05.4.1,0,5.65l-17.86,104-.14.6"/><path class="cls-3" d="M550.79,179.53,511.64,463.91l-24.3-2.35L482.52,496l55.37,17-10.76,166"/><path class="cls-3" d="M458.48,695.68l24.66-167.82,49.32,7.26,9.36-103.88-3.55,4.14"/><path class="cls-3" d="M497.17,687l2.25-34-53.28-9.1q7.49-44.57,15.06-89.12l.14-.6c17.33,2.14,34.65,4.27,51.38,6.27l-.14.6.88-1.06"/><path class="cls-3" d="M482.77,692c2.93-32.88,5.87-65.76,9.7-98.48l58.42,1,4.56-65.25c-.17-1.53-2.92-1.65-3.22-.14s2.28,2.44,3,1.1"/><path class="cls-3" d="M513.1,683.3c2.28-36.56,4.57-73.12,7.87-109.62l-.14.6.14-.6-.42,1.79"/><path class="cls-3" d="M526.28,286.8c-3.37,21-6.74,42-10,63.13l.74-.46"/><path class="cls-3" d="M517.68,352.13,554.6,360q-2.15,17.64-4.28,35.27l-39.22-3.38-6.21,47.82"/><path class="cls-3" d="M575.52,116,546.29,298.16l46.05,13.38c-3.84,28.89-7.68,57.79-10.81,86.74l-4.73,44.65c-15.93-3.21-31.86-6.43-47.93-8.94l.59.13"/><path class="cls-3" d="M526,435.89l-3.69,21,4.11-20.2c-1.69-.65-.86-3.84.94-3.58s1.69,3.56,3.15,1.93C530.76,434.85,531,434.69,526,435.89Z"/><path class="cls-3" d="M574.75,246.6Q563.16,367.8,552,489l19.86,1c-3.23,39.27-6.46,78.55-13.42,117.52,0,.2-.09.4-2.44,5.09,8.27-.39,16.53-.77,24.47-1.18L576.76,671"/><path class="cls-3" d="M548.16,678.74c-1.8-15.72-3.6-31.44-4.81-47l51.14.49-10.72-90.66"/><path class="cls-3" d="M600.38,592.35l9.5,49.74-18.27,4.14,3.09,16.27"/><path class="cls-3" d="M599,351.51l4-33.66"/><path class="cls-3" d="M574.77,113.62C554.49,105.83,534.22,98,513.28,92l.6.13c.2.05.4.1.46.74l-6.94,24.08L470.48,98.4l10.28-20.91c-41.6-17.65-83.34-33.56-124.94-51.21"/><path class="cls-3" d="M547.34,181l9.83-42.37c0,.2-.09.39-2.26-.2l14.18-38.92L475.94,64,464.1,89.23Q448,81.78,431.84,74.3l1.43-9.16L305.06,16.35"/><path class="cls-3" d="M522.82,172.81l14.59-47.53L517.17,114.4q-3.37,10-6.74,20.12l-256.66-121"/><path class="cls-3" d="M503.13,168.23l9.36-24.15-79.57-33.57,8-24.62L360.26,52.25c-4.6,7.85-7.37,11.23-12,19.07-17.18-7.1-34.86-19.77-52-26.87"/><path class="cls-3" d="M494.42,154.26,434.7,129.71"/><path class="cls-3" d="M251.85,15.28l-11.52,35.8,19.86,6.77L249.54,81.39l-18.45-1.06L213.22,133l19,18.3"/><path class="cls-3" d="M271.15,37.64,260,28.12c-1.4,6.18-2.79,12.37-4.07,18.39,3.45,2.41,6.9,4.83,10.74,7.19L215.73,167"/><path class="cls-3" d="M633.33,621.42,642,645.49l95.53-15.21"/><path class="cls-3" d="M1.82,785.2c25.61-3,43.15-4.49,68.92-6.17L66.1,748.32l36.26-3.61L101.44,777l173.93-29.67"/><path class="cls-3" d="M21.9,832.15c41.66-5,79.39-9.58,121-14.57l-22-76.47,68.73-12,10.21,61.8,130.89-24.72"/><path class="cls-3" d="M73.84,862.68l125.39-16,12.56,45.63c22.52-4.68,45-9.37,67.93-13.53L273,841.25l195.58-50.58"/><path class="cls-3" d="M150.73,872.8,250.27,855l-13-54.62c51.51-8.25,103-16.5,154.4-25.61"/><path class="cls-3" d="M184.39,901.08l-11.45-78.33c14.64-2,29.28-4,43.53-8.4l113.45-16.11c3.09,13.19,6.18,26.39,14.41,38.32l80.22-17.25,1.42.33-15.45-36.46"/><path class="cls-3" d="M16.66,814.78c48.88-6.43,97.76-12.85,146.91-17.19"/><path class="cls-3" d="M5.78,767.38c20.91-2.12,25.4-2.52,46.32-4.64C51.52,763.11,67.36,761.75,5.78,767.38Z"/><path class="cls-3" d="M233.06,709.37,169.32,720l-1-15.16L166,689.32l-47.2,5.78c1.35,10.67,2.7,21.35,4.38,30.61l-87.09,8.18"/><path class="cls-3" d="M213.73,695c-53.81,8.18-107.62,16.35-161.68,22.89l-.33,1.41"/><path class="cls-3" d="M224.65,650.36c-38.33,6.63-70.8,20.73-109.13,27.36-2.92,9.65-6.42,14.11-9.34,23.76-22.14,1.38-22.26,2-44.4,3.39"/><path class="cls-3" d="M166.43,659.62c.59,11.32,1.23,7.26,3.61,18.58l64.36-13.41"/><path class="cls-3" d="M327.36,877.54l89.39-22.35c2.39,7.15,4.77,14.3,7.57,23.7,24.16-7.37,48.32-14.74,72-23.69l-11.45-45.37c130.33-44.22,243.33-82.52,373.66-126.74"/><path class="cls-3" d="M319.46,862c93-21.59,186-43.17,276.07-62.27l-9.74-33.83,83-25.28,10.66,40.21c59.93-16.64,94-22,153.9-38.66"/><path class="cls-3" d="M451.65,865.54l327.17-92.28,8.86,36.43L859,794.47,846,757c22.6-7.2,12-4.77,34.63-12"/><path class="cls-3" d="M660.85,724l66.72-16L742.28,748l65.9-12.57-14.33-47.94c26.72-6.9,24.95-6.79,51.66-13.69"/><path class="cls-3" d="M813.64,783.68,709.06,811.39"/><path class="cls-3" d="M662,701.73c66.18-15.36,100.72-24.18,167.16-38.43"/><path class="cls-3" d="M643.8,679.09,676,668.37l12.65,67.8L759,724.85l-21-58.78c28.48-5.79,40-8,68.46-13.8"/><path class="cls-3" d="M645.53,661.81c46.76-9.33,74-14.64,120.79-24Z"/><path class="cls-3" d="M639.18,639.56c37.91-5.44,53.87-7.59,91.79-13"/><path class="cls-3" d="M669.78,616.21,680.65,666c35.87-6.08,48.1-7.4,84-13.48-5.24-8.2-5.5-7.36-10.74-15.56"/><path class="cls-3" d="M723.36,807.81l-70.83,11.41c-2.42-16.73-4.84-33.46-7.83-45.37-11.62,1.49-23.24,3-34.87,6.25L617,833.74"/><path class="cls-4" d="M576.54,482.28c-5.38-39.74,1.53-44.24,3.47-63,2-19.64,15.67-49.71,25.21-70.12,2.07-4.44,10.22-14.26,12.15-17.36,1.59-2.55-31.64,33.93-34.61,36.82-13.1,12.77-78.35,168.69-83,176.72-14.6,25-39.56,54.34-92.42,86.9-70.69,43.54-192.91,20,37.58,74.45,19.36,4.57,138.12-24.71,168.85-65.07,14.1-18.51-20.24-55.87-22.56-64.11Z"/><path class="cls-5" d="M266.85,618.28c3.46,5.39,67,53.42,148.41,60.65,138.55,12.31,209.94-68.79,209.94-68.79l23.18,56.15A33.77,33.77,0,0,1,635,709.74c-50.63,30-106.34,68.75-204.73,62.66C378.71,769.2,302,757.63,266,714.45c-14.75-17.68-29.62-35-22.59-56.89C251.93,631.05,261.47,609.91,266.85,618.28Z"/><path class="cls-6" d="M266.85,618.28c3.46,5.39,67,53.42,148.41,60.65,138.55,12.31,209.94-68.79,209.94-68.79l23.18,56.15A33.77,33.77,0,0,1,635,709.74c-50.63,30-106.34,68.75-204.73,62.66C378.71,769.2,302,757.63,266,714.45c-14.75-17.68-29.62-35-22.59-56.89C251.93,631.05,261.47,609.91,266.85,618.28Z"/><path class="cls-4" d="M525.64,762.74s-91.35-13.42-154-48.11C347.87,701.48,267,618.75,267,618.75s93.19,70,194.44,61c96.45-8.62,164.12-68.8,164.12-68.8s112.21-4.74,223.93,61.77c23.89,14.22,42.44,29.87,49.29,35,4.56,3.39,26.09,21.11,22.27,20.26-10.82-2.41-49.79-3-62.26-.86-28.76,5-56.14,9.14-56.14,9.14Z"/></g></g></g></svg>